{"asset":{"version":"2.0","generator":"Codex procedural low-poly travel models v2"},"scene":0,"scenes":[{"nodes":[0]}],"nodes":[{"name":"bike_rider","mesh":0}],"meshes":[{"name":"bike_rider_mesh","primitives":[{"attributes":{"POSITION":0,"NORMAL":1},"indices":2,"material":0},{"attributes":{"POSITION":3,"NORMAL":4},"indices":5,"material":3},{"attributes":{"POSITION":6,"NORMAL":7},"indices":8,"material":0},{"attributes":{"POSITION":9,"NORMAL":10},"indices":11,"material":3},{"attributes":{"POSITION":12,"NORMAL":13},"indices":14,"material":6},{"attributes":{"POSITION":15,"NORMAL":16},"indices":17,"material":6},{"attributes":{"POSITION":18,"NORMAL":19},"indices":20,"material":6},{"attributes":{"POSITION":21,"NORMAL":22},"indices":23,"material":6},{"attributes":{"POSITION":24,"NORMAL":25},"indices":26,"material":6},{"attributes":{"POSITION":27,"NORMAL":28},"indices":29,"material":6},{"attributes":{"POSITION":30,"NORMAL":31},"indices":32,"material":2},{"attributes":{"POSITION":33,"NORMAL":34},"indices":35,"material":3},{"attributes":{"POSITION":36,"NORMAL":37},"indices":38,"material":1},{"attributes":{"POSITION":39,"NORMAL":40},"indices":41,"material":3},{"attributes":{"POSITION":42,"NORMAL":43},"indices":44,"material":11},{"attributes":{"POSITION":45,"NORMAL":46},"indices":47,"material":6},{"attributes":{"POSITION":48,"NORMAL":49},"indices":50,"material":12},{"attributes":{"POSITION":51,"NORMAL":52},"indices":53,"material":11},{"attributes":{"POSITION":54,"NORMAL":55},"indices":56,"material":11},{"attributes":{"POSITION":57,"NORMAL":58},"indices":59,"material":12},{"attributes":{"POSITION":60,"NORMAL":61},"indices":62,"material":12},{"attributes":{"POSITION":63,"NORMAL":64},"indices":65,"material":12},{"attributes":{"POSITION":66,"NORMAL":67},"indices":68,"material":12}]}],"materials":[{"name":"tire_black","doubleSided":true,"pbrMetallicRoughness":{"baseColorFactor":[0.012,0.014,0.018,1],"metallicFactor":0,"roughnessFactor":0.68}},{"name":"rubber_dark","doubleSided":true,"pbrMetallicRoughness":{"baseColorFactor":[0.035,0.04,0.048,1],"metallicFactor":0,"roughnessFactor":0.68}},{"name":"metal_silver","doubleSided":true,"pbrMetallicRoughness":{"baseColorFactor":[0.63,0.68,0.72,1],"metallicFactor":0.25,"roughnessFactor":0.68}},{"name":"chrome_warm","doubleSided":true,"pbrMetallicRoughness":{"baseColorFactor":[0.92,0.9,0.82,1],"metallicFactor":0.35,"roughnessFactor":0.42}},{"name":"moto_orange","doubleSided":true,"pbrMetallicRoughness":{"baseColorFactor":[1,0.47,0.12,1],"metallicFactor":0,"roughnessFactor":0.68}},{"name":"warm_cream","doubleSided":true,"pbrMetallicRoughness":{"baseColorFactor":[1,0.9,0.68,1],"metallicFactor":0,"roughnessFactor":0.68}},{"name":"bike_blue","doubleSided":true,"pbrMetallicRoughness":{"baseColorFactor":[0.1,0.48,1,1],"metallicFactor":0,"roughnessFactor":0.68}},{"name":"ebike_green","doubleSided":true,"pbrMetallicRoughness":{"baseColorFactor":[0.18,0.86,0.42,1],"metallicFactor":0,"roughnessFactor":0.68}},{"name":"car_white","doubleSided":true,"pbrMetallicRoughness":{"baseColorFactor":[0.92,0.95,1,1],"metallicFactor":0,"roughnessFactor":0.68}},{"name":"car_orange","doubleSided":true,"pbrMetallicRoughness":{"baseColorFactor":[1,0.55,0.12,1],"metallicFactor":0,"roughnessFactor":0.68}},{"name":"glass_blue","doubleSided":true,"pbrMetallicRoughness":{"baseColorFactor":[0.34,0.63,1,0.82],"metallicFactor":0,"roughnessFactor":0.18},"alphaMode":"BLEND"},{"name":"rider_jacket","doubleSided":true,"pbrMetallicRoughness":{"baseColorFactor":[0.055,0.068,0.085,1],"metallicFactor":0,"roughnessFactor":0.68}},{"name":"rider_pants","doubleSided":true,"pbrMetallicRoughness":{"baseColorFactor":[0.025,0.03,0.04,1],"metallicFactor":0,"roughnessFactor":0.68}},{"name":"skin_warm","doubleSided":true,"pbrMetallicRoughness":{"baseColorFactor":[1,0.74,0.54,1],"metallicFactor":0,"roughnessFactor":0.68}},{"name":"tail_red","doubleSided":true,"pbrMetallicRoughness":{"baseColorFactor":[0.95,0.08,0.08,1],"metallicFactor":0,"roughnessFactor":0.68}},{"name":"headlight_warm","doubleSided":true,"pbrMetallicRoughness":{"baseColorFactor":[1,0.96,0.78,1],"metallicFactor":0,"roughnessFactor":0.68}}],"buffers":[{"byteLength":45168,"uri":"data:application/octet-stream;base64,"}],"bufferViews":[{"buffer":0,"byteOffset":0,"byteLength":1320,"target":34962},{"buffer":0,"byteOffset":1320,"byteLength":1320,"target":34962},{"buffer":0,"byteOffset":2640,"byteLength":432,"target":34963},{"buffer":0,"byteOffset":3072,"byteLength":1032,"target":34962},{"buffer":0,"byteOffset":4104,"byteLength":1032,"target":34962},{"buffer":0,"byteOffset":5136,"byteLength":336,"target":34963},{"buffer":0,"byteOffset":5472,"byteLength":1320,"target":34962},{"buffer":0,"byteOffset":6792,"byteLength":1320,"target":34962},{"buffer":0,"byteOffset":8112,"byteLength":432,"target":34963},{"buffer":0,"byteOffset":8544,"byteLength":1032,"target":34962},{"buffer":0,"byteOffset":9576,"byteLength":1032,"target":34962},{"buffer":0,"byteOffset":10608,"byteLength":336,"target":34963},{"buffer":0,"byteOffset":10944,"byteLength":600,"target":34962},{"buffer":0,"byteOffset":11544,"byteLength":600,"target":34962},{"buffer":0,"byteOffset":12144,"byteLength":192,"target":34963},{"buffer":0,"byteOffset":12336,"byteLength":600,"target":34962},{"buffer":0,"byteOffset":12936,"byteLength":600,"target":34962},{"buffer":0,"byteOffset":13536,"byteLength":192,"target":34963},{"buffer":0,"byteOffset":13728,"byteLength":600,"target":34962},{"buffer":0,"byteOffset":14328,"byteLength":600,"target":34962},{"buffer":0,"byteOffset":14928,"byteLength":192,"target":34963},{"buffer":0,"byteOffset":15120,"byteLength":600,"target":34962},{"buffer":0,"byteOffset":15720,"byteLength":600,"target":34962},{"buffer":0,"byteOffset":16320,"byteLength":192,"target":34963},{"buffer":0,"byteOffset":16512,"byteLength":600,"target":34962},{"buffer":0,"byteOffset":17112,"byteLength":600,"target":34962},{"buffer":0,"byteOffset":17712,"byteLength":192,"target":34963},{"buffer":0,"byteOffset":17904,"byteLength":600,"target":34962},{"buffer":0,"byteOffset":18504,"byteLength":600,"target":34962},{"buffer":0,"byteOffset":19104,"byteLength":192,"target":34963},{"buffer":0,"byteOffset":19296,"byteLength":600,"target":34962},{"buffer":0,"byteOffset":19896,"byteLength":600,"target":34962},{"buffer":0,"byteOffset":20496,"byteLength":192,"target":34963},{"buffer":0,"byteOffset":20688,"byteLength":600,"target":34962},{"buffer":0,"byteOffset":21288,"byteLength":600,"target":34962},{"buffer":0,"byteOffset":21888,"byteLength":192,"target":34963},{"buffer":0,"byteOffset":22080,"byteLength":432,"target":34962},{"buffer":0,"byteOffset":22512,"byteLength":432,"target":34962},{"buffer":0,"byteOffset":22944,"byteLength":72,"target":34963},{"buffer":0,"byteOffset":23016,"byteLength":888,"target":34962},{"buffer":0,"byteOffset":23904,"byteLength":888,"target":34962},{"buffer":0,"byteOffset":24792,"byteLength":288,"target":34963},{"buffer":0,"byteOffset":25080,"byteLength":2400,"target":34962},{"buffer":0,"byteOffset":27480,"byteLength":2400,"target":34962},{"buffer":0,"byteOffset":29880,"byteLength":600,"target":34963},{"buffer":0,"byteOffset":30480,"byteLength":2400,"target":34962},{"buffer":0,"byteOffset":32880,"byteLength":2400,"target":34962},{"buffer":0,"byteOffset":35280,"byteLength":600,"target":34963},{"buffer":0,"byteOffset":35880,"byteLength":432,"target":34962},{"buffer":0,"byteOffset":36312,"byteLength":432,"target":34962},{"buffer":0,"byteOffset":36744,"byteLength":72,"target":34963},{"buffer":0,"byteOffset":36816,"byteLength":600,"target":34962},{"buffer":0,"byteOffset":37416,"byteLength":600,"target":34962},{"buffer":0,"byteOffset":38016,"byteLength":192,"target":34963},{"buffer":0,"byteOffset":38208,"byteLength":600,"target":34962},{"buffer":0,"byteOffset":38808,"byteLength":600,"target":34962},{"buffer":0,"byteOffset":39408,"byteLength":192,"target":34963},{"buffer":0,"byteOffset":39600,"byteLength":600,"target":34962},{"buffer":0,"byteOffset":40200,"byteLength":600,"target":34962},{"buffer":0,"byteOffset":40800,"byteLength":192,"target":34963},{"buffer":0,"byteOffset":40992,"byteLength":600,"target":34962},{"buffer":0,"byteOffset":41592,"byteLength":600,"target":34962},{"buffer":0,"byteOffset":42192,"byteLength":192,"target":34963},{"buffer":0,"byteOffset":42384,"byteLength":600,"target":34962},{"buffer":0,"byteOffset":42984,"byteLength":600,"target":34962},{"buffer":0,"byteOffset":43584,"byteLength":192,"target":34963},{"buffer":0,"byteOffset":43776,"byteLength":600,"target":34962},{"buffer":0,"byteOffset":44376,"byteLength":600,"target":34962},{"buffer":0,"byteOffset":44976,"byteLength":192,"target":34963}],"accessors":[{"bufferView":0,"componentType":5126,"count":110,"type":"VEC3","min":[-0.0275,0,-0.846201938253052],"max":[0.0275,0.5,-0.35379806174694794]},{"bufferView":1,"componentType":5126,"count":110,"type":"VEC3"},{"bufferView":2,"componentType":5123,"count":216,"type":"SCALAR"},{"bufferView":3,"componentType":5126,"count":86,"type":"VEC3","min":[-0.03245,0.18,-0.6682449538527276],"max":[0.03245,0.32,-0.5317550461472723]},{"bufferView":4,"componentType":5126,"count":86,"type":"VEC3"},{"bufferView":5,"componentType":5123,"count":168,"type":"SCALAR"},{"bufferView":6,"componentType":5126,"count":110,"type":"VEC3","min":[-0.0275,0,0.35379806174694794],"max":[0.0275,0.5,0.846201938253052]},{"bufferView":7,"componentType":5126,"count":110,"type":"VEC3"},{"bufferView":8,"componentType":5123,"count":216,"type":"SCALAR"},{"bufferView":9,"componentType":5126,"count":86,"type":"VEC3","min":[-0.03245,0.18,0.5317550461472723],"max":[0.03245,0.32,0.6682449538527276]},{"bufferView":10,"componentType":5126,"count":86,"type":"VEC3"},{"bufferView":11,"componentType":5123,"count":168,"type":"SCALAR"},{"bufferView":12,"componentType":5126,"count":50,"type":"VEC3","min":[-0.018,0.2441000913623103,-0.6170056190145173],"max":[0.018,0.7458999086376897,-0.41299438098548263]},{"bufferView":13,"componentType":5126,"count":50,"type":"VEC3"},{"bufferView":14,"componentType":5123,"count":96,"type":"SCALAR"},{"bufferView":15,"componentType":5126,"count":50,"type":"VEC3","min":[-0.018,0.23833386466848955,0.18629229098547523],"max":[0.018,0.7316661353315104,0.6137077090145248]},{"bufferView":16,"componentType":5126,"count":50,"type":"VEC3"},{"bufferView":17,"componentType":5123,"count":96,"type":"SCALAR"},{"bufferView":18,"componentType":5126,"count":50,"type":"VEC3","min":[-0.018,0.7020090634446834,-0.43057114084302595],"max":[0.018,0.7579909365553166,0.20057114084302594]},{"bufferView":19,"componentType":5126,"count":50,"type":"VEC3"},{"bufferView":20,"componentType":5123,"count":96,"type":"SCALAR"},{"bufferView":21,"componentType":5126,"count":50,"type":"VEC3","min":[-0.018,0.3652945784612343,-0.44038029755677577],"max":[0.018,0.7547054215387657,0.09038029755677579]},{"bufferView":22,"componentType":5126,"count":50,"type":"VEC3"},{"bufferView":23,"componentType":5123,"count":96,"type":"SCALAR"},{"bufferView":24,"componentType":5126,"count":50,"type":"VEC3","min":[-0.018,0.3740092378807675,0.063026173995508],"max":[0.018,0.7259907621192324,0.21697382600449203]},{"bufferView":25,"componentType":5126,"count":50,"type":"VEC3"},{"bufferView":26,"componentType":5123,"count":96,"type":"SCALAR"},{"bufferView":27,"componentType":5126,"count":50,"type":"VEC3","min":[-0.018,0.23253743499738402,0.07563435874934601],"max":[0.018,0.39746256500261595,0.604365641250654]},{"bufferView":28,"componentType":5126,"count":50,"type":"VEC3"},{"bufferView":29,"componentType":5123,"count":96,"type":"SCALAR"},{"bufferView":30,"componentType":5126,"count":50,"type":"VEC3","min":[-0.015,0.23526682127328655,-0.6028166371095187],"max":[0.015,0.39473317872671343,0.08281663710951875]},{"bufferView":31,"componentType":5126,"count":50,"type":"VEC3"},{"bufferView":32,"componentType":5123,"count":96,"type":"SCALAR"},{"bufferView":33,"componentType":5126,"count":50,"type":"VEC3","min":[-0.23,0.782,-0.5680000000000001],"max":[0.23,0.8180000000000001,-0.532]},{"bufferView":34,"componentType":5126,"count":50,"type":"VEC3"},{"bufferView":35,"componentType":5123,"count":96,"type":"SCALAR"},{"bufferView":36,"componentType":5126,"count":36,"type":"VEC3","min":[-0.16,0.725,0.15],"max":[0.16,0.795,0.32999999999999996]},{"bufferView":37,"componentType":5126,"count":36,"type":"VEC3"},{"bufferView":38,"componentType":5123,"count":36,"type":"SCALAR"},{"bufferView":39,"componentType":5126,"count":74,"type":"VEC3","min":[-0.09,0.325,0.025],"max":[0.09,0.435,0.135]},{"bufferView":40,"componentType":5126,"count":74,"type":"VEC3"},{"bufferView":41,"componentType":5123,"count":144,"type":"SCALAR"},{"bufferView":42,"componentType":5126,"count":200,"type":"VEC3","min":[-0.15216904260722458,0.72,-0.1115861046343716],"max":[0.15216904260722458,1.1199999999999999,0.12358610463437161]},{"bufferView":43,"componentType":5126,"count":200,"type":"VEC3"},{"bufferView":44,"componentType":5123,"count":300,"type":"SCALAR"},{"bufferView":45,"componentType":5126,"count":200,"type":"VEC3","min":[-0.12363734711836998,1.0500000000000003,-0.32263118960624637],"max":[0.12363734711836998,1.31,-0.06936881039375367]},{"bufferView":46,"componentType":5126,"count":200,"type":"VEC3"},{"bufferView":47,"componentType":5123,"count":300,"type":"SCALAR"},{"bufferView":48,"componentType":5126,"count":36,"type":"VEC3","min":[-0.14,0.6699999999999999,0.09],"max":[0.14,0.79,0.29000000000000004]},{"bufferView":49,"componentType":5126,"count":36,"type":"VEC3"},{"bufferView":50,"componentType":5123,"count":36,"type":"SCALAR"},{"bufferView":51,"componentType":5126,"count":50,"type":"VEC3","min":[-0.2256621890181933,0.7757787216554197,-0.559550328022737],"max":[-0.10433781098180674,0.9942212783445803,-0.11044967197726305]},{"bufferView":52,"componentType":5126,"count":50,"type":"VEC3"},{"bufferView":53,"componentType":5123,"count":96,"type":"SCALAR"},{"bufferView":54,"componentType":5126,"count":50,"type":"VEC3","min":[0.10433781098180674,0.7757787216554197,-0.559550328022737],"max":[0.2256621890181933,0.9942212783445803,-0.11044967197726305]},{"bufferView":55,"componentType":5126,"count":50,"type":"VEC3"},{"bufferView":56,"componentType":5123,"count":96,"type":"SCALAR"},{"bufferView":57,"componentType":5126,"count":50,"type":"VEC3","min":[-0.188146740919514,0.41588631310624025,0.033093735870748445],"max":[-0.071853259080486,0.7241136868937598,0.21690626412925157]},{"bufferView":58,"componentType":5126,"count":50,"type":"VEC3"},{"bufferView":59,"componentType":5123,"count":96,"type":"SCALAR"},{"bufferView":60,"componentType":5126,"count":50,"type":"VEC3","min":[-0.1827845371937886,0.31518963167025077,-0.09897580424955882],"max":[-0.03721546280621142,0.45481036832974925,0.07897580424955881]},{"bufferView":61,"componentType":5126,"count":50,"type":"VEC3"},{"bufferView":62,"componentType":5123,"count":96,"type":"SCALAR"},{"bufferView":63,"componentType":5126,"count":50,"type":"VEC3","min":[0.06928770924051497,0.41478070479166873,0.12916455439137692],"max":[0.17071229075948505,0.7152192952083313,0.2208354456086231]},{"bufferView":64,"componentType":5126,"count":50,"type":"VEC3"},{"bufferView":65,"componentType":5123,"count":96,"type":"SCALAR"},{"bufferView":66,"componentType":5126,"count":50,"type":"VEC3","min":[0.0453468092021791,0.3153814922875936,0.142308609608511],"max":[0.16465319079782093,0.4446185077124064,0.307691390391489]},{"bufferView":67,"componentType":5126,"count":50,"type":"VEC3"},{"bufferView":68,"componentType":5123,"count":96,"type":"SCALAR"}]}
