{"asset":{"version":"2.0","generator":"Codex procedural low-poly travel models v2"},"scene":0,"scenes":[{"nodes":[0]}],"nodes":[{"name":"car","mesh":0}],"meshes":[{"name":"car_mesh","primitives":[{"attributes":{"POSITION":0,"NORMAL":1},"indices":2,"material":9},{"attributes":{"POSITION":3,"NORMAL":4},"indices":5,"material":8},{"attributes":{"POSITION":6,"NORMAL":7},"indices":8,"material":10},{"attributes":{"POSITION":9,"NORMAL":10},"indices":11,"material":10},{"attributes":{"POSITION":12,"NORMAL":13},"indices":14,"material":10},{"attributes":{"POSITION":15,"NORMAL":16},"indices":17,"material":10},{"attributes":{"POSITION":18,"NORMAL":19},"indices":20,"material":10},{"attributes":{"POSITION":21,"NORMAL":22},"indices":23,"material":15},{"attributes":{"POSITION":24,"NORMAL":25},"indices":26,"material":15},{"attributes":{"POSITION":27,"NORMAL":28},"indices":29,"material":14},{"attributes":{"POSITION":30,"NORMAL":31},"indices":32,"material":14},{"attributes":{"POSITION":33,"NORMAL":34},"indices":35,"material":0},{"attributes":{"POSITION":36,"NORMAL":37},"indices":38,"material":3},{"attributes":{"POSITION":39,"NORMAL":40},"indices":41,"material":0},{"attributes":{"POSITION":42,"NORMAL":43},"indices":44,"material":3},{"attributes":{"POSITION":45,"NORMAL":46},"indices":47,"material":0},{"attributes":{"POSITION":48,"NORMAL":49},"indices":50,"material":3},{"attributes":{"POSITION":51,"NORMAL":52},"indices":53,"material":0},{"attributes":{"POSITION":54,"NORMAL":55},"indices":56,"material":3}]}],"materials":[{"name":"tire_black","doubleSided":true,"pbrMetallicRoughness":{"baseColorFactor":[0.012,0.014,0.018,1],"metallicFactor":0,"roughnessFactor":0.68}},{"name":"rubber_dark","doubleSided":true,"pbrMetallicRoughness":{"baseColorFactor":[0.035,0.04,0.048,1],"metallicFactor":0,"roughnessFactor":0.68}},{"name":"metal_silver","doubleSided":true,"pbrMetallicRoughness":{"baseColorFactor":[0.63,0.68,0.72,1],"metallicFactor":0.25,"roughnessFactor":0.68}},{"name":"chrome_warm","doubleSided":true,"pbrMetallicRoughness":{"baseColorFactor":[0.92,0.9,0.82,1],"metallicFactor":0.35,"roughnessFactor":0.42}},{"name":"moto_orange","doubleSided":true,"pbrMetallicRoughness":{"baseColorFactor":[1,0.47,0.12,1],"metallicFactor":0,"roughnessFactor":0.68}},{"name":"warm_cream","doubleSided":true,"pbrMetallicRoughness":{"baseColorFactor":[1,0.9,0.68,1],"metallicFactor":0,"roughnessFactor":0.68}},{"name":"bike_blue","doubleSided":true,"pbrMetallicRoughness":{"baseColorFactor":[0.1,0.48,1,1],"metallicFactor":0,"roughnessFactor":0.68}},{"name":"ebike_green","doubleSided":true,"pbrMetallicRoughness":{"baseColorFactor":[0.18,0.86,0.42,1],"metallicFactor":0,"roughnessFactor":0.68}},{"name":"car_white","doubleSided":true,"pbrMetallicRoughness":{"baseColorFactor":[0.92,0.95,1,1],"metallicFactor":0,"roughnessFactor":0.68}},{"name":"car_orange","doubleSided":true,"pbrMetallicRoughness":{"baseColorFactor":[1,0.55,0.12,1],"metallicFactor":0,"roughnessFactor":0.68}},{"name":"glass_blue","doubleSided":true,"pbrMetallicRoughness":{"baseColorFactor":[0.34,0.63,1,0.82],"metallicFactor":0,"roughnessFactor":0.18},"alphaMode":"BLEND"},{"name":"rider_jacket","doubleSided":true,"pbrMetallicRoughness":{"baseColorFactor":[0.055,0.068,0.085,1],"metallicFactor":0,"roughnessFactor":0.68}},{"name":"rider_pants","doubleSided":true,"pbrMetallicRoughness":{"baseColorFactor":[0.025,0.03,0.04,1],"metallicFactor":0,"roughnessFactor":0.68}},{"name":"skin_warm","doubleSided":true,"pbrMetallicRoughness":{"baseColorFactor":[1,0.74,0.54,1],"metallicFactor":0,"roughnessFactor":0.68}},{"name":"tail_red","doubleSided":true,"pbrMetallicRoughness":{"baseColorFactor":[0.95,0.08,0.08,1],"metallicFactor":0,"roughnessFactor":0.68}},{"name":"headlight_warm","doubleSided":true,"pbrMetallicRoughness":{"baseColorFactor":[1,0.96,0.78,1],"metallicFactor":0,"roughnessFactor":0.68}}],"buffers":[{"byteLength":30840,"uri":"data:application/octet-stream;base64,"}],"bufferViews":[{"buffer":0,"byteOffset":0,"byteLength":432,"target":34962},{"buffer":0,"byteOffset":432,"byteLength":432,"target":34962},{"buffer":0,"byteOffset":864,"byteLength":72,"target":34963},{"buffer":0,"byteOffset":936,"byteLength":432,"target":34962},{"buffer":0,"byteOffset":1368,"byteLength":432,"target":34962},{"buffer":0,"byteOffset":1800,"byteLength":72,"target":34963},{"buffer":0,"byteOffset":1872,"byteLength":432,"target":34962},{"buffer":0,"byteOffset":2304,"byteLength":432,"target":34962},{"buffer":0,"byteOffset":2736,"byteLength":72,"target":34963},{"buffer":0,"byteOffset":2808,"byteLength":432,"target":34962},{"buffer":0,"byteOffset":3240,"byteLength":432,"target":34962},{"buffer":0,"byteOffset":3672,"byteLength":72,"target":34963},{"buffer":0,"byteOffset":3744,"byteLength":432,"target":34962},{"buffer":0,"byteOffset":4176,"byteLength":432,"target":34962},{"buffer":0,"byteOffset":4608,"byteLength":72,"target":34963},{"buffer":0,"byteOffset":4680,"byteLength":432,"target":34962},{"buffer":0,"byteOffset":5112,"byteLength":432,"target":34962},{"buffer":0,"byteOffset":5544,"byteLength":72,"target":34963},{"buffer":0,"byteOffset":5616,"byteLength":432,"target":34962},{"buffer":0,"byteOffset":6048,"byteLength":432,"target":34962},{"buffer":0,"byteOffset":6480,"byteLength":72,"target":34963},{"buffer":0,"byteOffset":6552,"byteLength":432,"target":34962},{"buffer":0,"byteOffset":6984,"byteLength":432,"target":34962},{"buffer":0,"byteOffset":7416,"byteLength":72,"target":34963},{"buffer":0,"byteOffset":7488,"byteLength":432,"target":34962},{"buffer":0,"byteOffset":7920,"byteLength":432,"target":34962},{"buffer":0,"byteOffset":8352,"byteLength":72,"target":34963},{"buffer":0,"byteOffset":8424,"byteLength":432,"target":34962},{"buffer":0,"byteOffset":8856,"byteLength":432,"target":34962},{"buffer":0,"byteOffset":9288,"byteLength":72,"target":34963},{"buffer":0,"byteOffset":9360,"byteLength":432,"target":34962},{"buffer":0,"byteOffset":9792,"byteLength":432,"target":34962},{"buffer":0,"byteOffset":10224,"byteLength":72,"target":34963},{"buffer":0,"byteOffset":10296,"byteLength":1320,"target":34962},{"buffer":0,"byteOffset":11616,"byteLength":1320,"target":34962},{"buffer":0,"byteOffset":12936,"byteLength":432,"target":34963},{"buffer":0,"byteOffset":13368,"byteLength":888,"target":34962},{"buffer":0,"byteOffset":14256,"byteLength":888,"target":34962},{"buffer":0,"byteOffset":15144,"byteLength":288,"target":34963},{"buffer":0,"byteOffset":15432,"byteLength":1320,"target":34962},{"buffer":0,"byteOffset":16752,"byteLength":1320,"target":34962},{"buffer":0,"byteOffset":18072,"byteLength":432,"target":34963},{"buffer":0,"byteOffset":18504,"byteLength":888,"target":34962},{"buffer":0,"byteOffset":19392,"byteLength":888,"target":34962},{"buffer":0,"byteOffset":20280,"byteLength":288,"target":34963},{"buffer":0,"byteOffset":20568,"byteLength":1320,"target":34962},{"buffer":0,"byteOffset":21888,"byteLength":1320,"target":34962},{"buffer":0,"byteOffset":23208,"byteLength":432,"target":34963},{"buffer":0,"byteOffset":23640,"byteLength":888,"target":34962},{"buffer":0,"byteOffset":24528,"byteLength":888,"target":34962},{"buffer":0,"byteOffset":25416,"byteLength":288,"target":34963},{"buffer":0,"byteOffset":25704,"byteLength":1320,"target":34962},{"buffer":0,"byteOffset":27024,"byteLength":1320,"target":34962},{"buffer":0,"byteOffset":28344,"byteLength":432,"target":34963},{"buffer":0,"byteOffset":28776,"byteLength":888,"target":34962},{"buffer":0,"byteOffset":29664,"byteLength":888,"target":34962},{"buffer":0,"byteOffset":30552,"byteLength":288,"target":34963}],"accessors":[{"bufferView":0,"componentType":5126,"count":36,"type":"VEC3","min":[-0.48,0.19,-0.77],"max":[0.48,0.43,0.81]},{"bufferView":1,"componentType":5126,"count":36,"type":"VEC3"},{"bufferView":2,"componentType":5123,"count":36,"type":"SCALAR"},{"bufferView":3,"componentType":5126,"count":36,"type":"VEC3","min":[-0.42,0.38,-0.62],"max":[0.42,0.58,0.5399999999999999]},{"bufferView":4,"componentType":5126,"count":36,"type":"VEC3"},{"bufferView":5,"componentType":5123,"count":36,"type":"SCALAR"},{"bufferView":6,"componentType":5126,"count":36,"type":"VEC3","min":[-0.31,0.59,-0.44],"max":[0.31,0.7999999999999999,0.27999999999999997]},{"bufferView":7,"componentType":5126,"count":36,"type":"VEC3"},{"bufferView":8,"componentType":5123,"count":36,"type":"SCALAR"},{"bufferView":9,"componentType":5126,"count":36,"type":"VEC3","min":[-0.28,0.54,-0.6799999999999999],"max":[0.28,0.5800000000000001,-0.48]},{"bufferView":10,"componentType":5126,"count":36,"type":"VEC3"},{"bufferView":11,"componentType":5123,"count":36,"type":"SCALAR"},{"bufferView":12,"componentType":5126,"count":36,"type":"VEC3","min":[-0.25,0.53,0.26],"max":[0.25,0.5700000000000001,0.43999999999999995]},{"bufferView":13,"componentType":5126,"count":36,"type":"VEC3"},{"bufferView":14,"componentType":5123,"count":36,"type":"SCALAR"},{"bufferView":15,"componentType":5126,"count":36,"type":"VEC3","min":[-0.53,0.425,-0.36],"max":[-0.45,0.535,0.16]},{"bufferView":16,"componentType":5126,"count":36,"type":"VEC3"},{"bufferView":17,"componentType":5123,"count":36,"type":"SCALAR"},{"bufferView":18,"componentType":5126,"count":36,"type":"VEC3","min":[0.45,0.425,-0.36],"max":[0.53,0.535,0.16]},{"bufferView":19,"componentType":5126,"count":36,"type":"VEC3"},{"bufferView":20,"componentType":5123,"count":36,"type":"SCALAR"},{"bufferView":21,"componentType":5126,"count":36,"type":"VEC3","min":[-0.36,0.33,-0.84],"max":[-0.18000000000000002,0.41,-0.7999999999999999]},{"bufferView":22,"componentType":5126,"count":36,"type":"VEC3"},{"bufferView":23,"componentType":5123,"count":36,"type":"SCALAR"},{"bufferView":24,"componentType":5126,"count":36,"type":"VEC3","min":[0.18000000000000002,0.33,-0.84],"max":[0.36,0.41,-0.7999999999999999]},{"bufferView":25,"componentType":5126,"count":36,"type":"VEC3"},{"bufferView":26,"componentType":5123,"count":36,"type":"SCALAR"},{"bufferView":27,"componentType":5126,"count":36,"type":"VEC3","min":[-0.37,0.31,0.7999999999999999],"max":[-0.19000000000000003,0.38999999999999996,0.84]},{"bufferView":28,"componentType":5126,"count":36,"type":"VEC3"},{"bufferView":29,"componentType":5123,"count":36,"type":"SCALAR"},{"bufferView":30,"componentType":5126,"count":36,"type":"VEC3","min":[0.19000000000000003,0.31,0.7999999999999999],"max":[0.37,0.38999999999999996,0.84]},{"bufferView":31,"componentType":5126,"count":36,"type":"VEC3"},{"bufferView":32,"componentType":5123,"count":36,"type":"SCALAR"},{"bufferView":33,"componentType":5126,"count":110,"type":"VEC3","min":[-0.5900000000000001,0,-0.6375692404819533],"max":[-0.45,0.32,-0.3224307595180467]},{"bufferView":34,"componentType":5126,"count":110,"type":"VEC3"},{"bufferView":35,"componentType":5123,"count":216,"type":"SCALAR"},{"bufferView":36,"componentType":5126,"count":74,"type":"VEC3","min":[-0.6,0.085,-0.5549999999999999],"max":[-0.44,0.235,-0.40499999999999997]},{"bufferView":37,"componentType":5126,"count":74,"type":"VEC3"},{"bufferView":38,"componentType":5123,"count":144,"type":"SCALAR"},{"bufferView":39,"componentType":5126,"count":110,"type":"VEC3","min":[-0.5900000000000001,0,0.3424307595180467],"max":[-0.45,0.32,0.6575692404819533]},{"bufferView":40,"componentType":5126,"count":110,"type":"VEC3"},{"bufferView":41,"componentType":5123,"count":216,"type":"SCALAR"},{"bufferView":42,"componentType":5126,"count":74,"type":"VEC3","min":[-0.6,0.085,0.425],"max":[-0.44,0.235,0.575]},{"bufferView":43,"componentType":5126,"count":74,"type":"VEC3"},{"bufferView":44,"componentType":5123,"count":144,"type":"SCALAR"},{"bufferView":45,"componentType":5126,"count":110,"type":"VEC3","min":[0.45,0,-0.6375692404819533],"max":[0.5900000000000001,0.32,-0.3224307595180467]},{"bufferView":46,"componentType":5126,"count":110,"type":"VEC3"},{"bufferView":47,"componentType":5123,"count":216,"type":"SCALAR"},{"bufferView":48,"componentType":5126,"count":74,"type":"VEC3","min":[0.44,0.085,-0.5549999999999999],"max":[0.6,0.235,-0.40499999999999997]},{"bufferView":49,"componentType":5126,"count":74,"type":"VEC3"},{"bufferView":50,"componentType":5123,"count":144,"type":"SCALAR"},{"bufferView":51,"componentType":5126,"count":110,"type":"VEC3","min":[0.45,0,0.3424307595180467],"max":[0.5900000000000001,0.32,0.6575692404819533]},{"bufferView":52,"componentType":5126,"count":110,"type":"VEC3"},{"bufferView":53,"componentType":5123,"count":216,"type":"SCALAR"},{"bufferView":54,"componentType":5126,"count":74,"type":"VEC3","min":[0.44,0.085,0.425],"max":[0.6,0.235,0.575]},{"bufferView":55,"componentType":5126,"count":74,"type":"VEC3"},{"bufferView":56,"componentType":5123,"count":144,"type":"SCALAR"}]}
