{"asset":{"version":"2.0","generator":"Codex procedural low-poly travel models v2"},"scene":0,"scenes":[{"nodes":[0]}],"nodes":[{"name":"ebike_rider","mesh":0}],"meshes":[{"name":"ebike_rider_mesh","primitives":[{"attributes":{"POSITION":0,"NORMAL":1},"indices":2,"material":0},{"attributes":{"POSITION":3,"NORMAL":4},"indices":5,"material":3},{"attributes":{"POSITION":6,"NORMAL":7},"indices":8,"material":0},{"attributes":{"POSITION":9,"NORMAL":10},"indices":11,"material":3},{"attributes":{"POSITION":12,"NORMAL":13},"indices":14,"material":7},{"attributes":{"POSITION":15,"NORMAL":16},"indices":17,"material":1},{"attributes":{"POSITION":18,"NORMAL":19},"indices":20,"material":7},{"attributes":{"POSITION":21,"NORMAL":22},"indices":23,"material":1},{"attributes":{"POSITION":24,"NORMAL":25},"indices":26,"material":14},{"attributes":{"POSITION":27,"NORMAL":28},"indices":29,"material":2},{"attributes":{"POSITION":30,"NORMAL":31},"indices":32,"material":2},{"attributes":{"POSITION":33,"NORMAL":34},"indices":35,"material":3},{"attributes":{"POSITION":36,"NORMAL":37},"indices":38,"material":15},{"attributes":{"POSITION":39,"NORMAL":40},"indices":41,"material":11},{"attributes":{"POSITION":42,"NORMAL":43},"indices":44,"material":7},{"attributes":{"POSITION":45,"NORMAL":46},"indices":47,"material":12},{"attributes":{"POSITION":48,"NORMAL":49},"indices":50,"material":11},{"attributes":{"POSITION":51,"NORMAL":52},"indices":53,"material":11},{"attributes":{"POSITION":54,"NORMAL":55},"indices":56,"material":12},{"attributes":{"POSITION":57,"NORMAL":58},"indices":59,"material":12}]}],"materials":[{"name":"tire_black","doubleSided":true,"pbrMetallicRoughness":{"baseColorFactor":[0.012,0.014,0.018,1],"metallicFactor":0,"roughnessFactor":0.68}},{"name":"rubber_dark","doubleSided":true,"pbrMetallicRoughness":{"baseColorFactor":[0.035,0.04,0.048,1],"metallicFactor":0,"roughnessFactor":0.68}},{"name":"metal_silver","doubleSided":true,"pbrMetallicRoughness":{"baseColorFactor":[0.63,0.68,0.72,1],"metallicFactor":0.25,"roughnessFactor":0.68}},{"name":"chrome_warm","doubleSided":true,"pbrMetallicRoughness":{"baseColorFactor":[0.92,0.9,0.82,1],"metallicFactor":0.35,"roughnessFactor":0.42}},{"name":"moto_orange","doubleSided":true,"pbrMetallicRoughness":{"baseColorFactor":[1,0.47,0.12,1],"metallicFactor":0,"roughnessFactor":0.68}},{"name":"warm_cream","doubleSided":true,"pbrMetallicRoughness":{"baseColorFactor":[1,0.9,0.68,1],"metallicFactor":0,"roughnessFactor":0.68}},{"name":"bike_blue","doubleSided":true,"pbrMetallicRoughness":{"baseColorFactor":[0.1,0.48,1,1],"metallicFactor":0,"roughnessFactor":0.68}},{"name":"ebike_green","doubleSided":true,"pbrMetallicRoughness":{"baseColorFactor":[0.18,0.86,0.42,1],"metallicFactor":0,"roughnessFactor":0.68}},{"name":"car_white","doubleSided":true,"pbrMetallicRoughness":{"baseColorFactor":[0.92,0.95,1,1],"metallicFactor":0,"roughnessFactor":0.68}},{"name":"car_orange","doubleSided":true,"pbrMetallicRoughness":{"baseColorFactor":[1,0.55,0.12,1],"metallicFactor":0,"roughnessFactor":0.68}},{"name":"glass_blue","doubleSided":true,"pbrMetallicRoughness":{"baseColorFactor":[0.34,0.63,1,0.82],"metallicFactor":0,"roughnessFactor":0.18},"alphaMode":"BLEND"},{"name":"rider_jacket","doubleSided":true,"pbrMetallicRoughness":{"baseColorFactor":[0.055,0.068,0.085,1],"metallicFactor":0,"roughnessFactor":0.68}},{"name":"rider_pants","doubleSided":true,"pbrMetallicRoughness":{"baseColorFactor":[0.025,0.03,0.04,1],"metallicFactor":0,"roughnessFactor":0.68}},{"name":"skin_warm","doubleSided":true,"pbrMetallicRoughness":{"baseColorFactor":[1,0.74,0.54,1],"metallicFactor":0,"roughnessFactor":0.68}},{"name":"tail_red","doubleSided":true,"pbrMetallicRoughness":{"baseColorFactor":[0.95,0.08,0.08,1],"metallicFactor":0,"roughnessFactor":0.68}},{"name":"headlight_warm","doubleSided":true,"pbrMetallicRoughness":{"baseColorFactor":[1,0.96,0.78,1],"metallicFactor":0,"roughnessFactor":0.68}}],"buffers":[{"byteLength":38736,"uri":"data:application/octet-stream;base64,"}],"bufferViews":[{"buffer":0,"byteOffset":0,"byteLength":1320,"target":34962},{"buffer":0,"byteOffset":1320,"byteLength":1320,"target":34962},{"buffer":0,"byteOffset":2640,"byteLength":432,"target":34963},{"buffer":0,"byteOffset":3072,"byteLength":1032,"target":34962},{"buffer":0,"byteOffset":4104,"byteLength":1032,"target":34962},{"buffer":0,"byteOffset":5136,"byteLength":336,"target":34963},{"buffer":0,"byteOffset":5472,"byteLength":1320,"target":34962},{"buffer":0,"byteOffset":6792,"byteLength":1320,"target":34962},{"buffer":0,"byteOffset":8112,"byteLength":432,"target":34963},{"buffer":0,"byteOffset":8544,"byteLength":1032,"target":34962},{"buffer":0,"byteOffset":9576,"byteLength":1032,"target":34962},{"buffer":0,"byteOffset":10608,"byteLength":336,"target":34963},{"buffer":0,"byteOffset":10944,"byteLength":432,"target":34962},{"buffer":0,"byteOffset":11376,"byteLength":432,"target":34962},{"buffer":0,"byteOffset":11808,"byteLength":72,"target":34963},{"buffer":0,"byteOffset":11880,"byteLength":432,"target":34962},{"buffer":0,"byteOffset":12312,"byteLength":432,"target":34962},{"buffer":0,"byteOffset":12744,"byteLength":72,"target":34963},{"buffer":0,"byteOffset":12816,"byteLength":432,"target":34962},{"buffer":0,"byteOffset":13248,"byteLength":432,"target":34962},{"buffer":0,"byteOffset":13680,"byteLength":72,"target":34963},{"buffer":0,"byteOffset":13752,"byteLength":432,"target":34962},{"buffer":0,"byteOffset":14184,"byteLength":432,"target":34962},{"buffer":0,"byteOffset":14616,"byteLength":72,"target":34963},{"buffer":0,"byteOffset":14688,"byteLength":432,"target":34962},{"buffer":0,"byteOffset":15120,"byteLength":432,"target":34962},{"buffer":0,"byteOffset":15552,"byteLength":72,"target":34963},{"buffer":0,"byteOffset":15624,"byteLength":744,"target":34962},{"buffer":0,"byteOffset":16368,"byteLength":744,"target":34962},{"buffer":0,"byteOffset":17112,"byteLength":240,"target":34963},{"buffer":0,"byteOffset":17352,"byteLength":744,"target":34962},{"buffer":0,"byteOffset":18096,"byteLength":744,"target":34962},{"buffer":0,"byteOffset":18840,"byteLength":240,"target":34963},{"buffer":0,"byteOffset":19080,"byteLength":744,"target":34962},{"buffer":0,"byteOffset":19824,"byteLength":744,"target":34962},{"buffer":0,"byteOffset":20568,"byteLength":240,"target":34963},{"buffer":0,"byteOffset":20808,"byteLength":288,"target":34962},{"buffer":0,"byteOffset":21096,"byteLength":288,"target":34962},{"buffer":0,"byteOffset":21384,"byteLength":48,"target":34963},{"buffer":0,"byteOffset":21432,"byteLength":2400,"target":34962},{"buffer":0,"byteOffset":23832,"byteLength":2400,"target":34962},{"buffer":0,"byteOffset":26232,"byteLength":600,"target":34963},{"buffer":0,"byteOffset":26832,"byteLength":2400,"target":34962},{"buffer":0,"byteOffset":29232,"byteLength":2400,"target":34962},{"buffer":0,"byteOffset":31632,"byteLength":600,"target":34963},{"buffer":0,"byteOffset":32232,"byteLength":432,"target":34962},{"buffer":0,"byteOffset":32664,"byteLength":432,"target":34962},{"buffer":0,"byteOffset":33096,"byteLength":72,"target":34963},{"buffer":0,"byteOffset":33168,"byteLength":600,"target":34962},{"buffer":0,"byteOffset":33768,"byteLength":600,"target":34962},{"buffer":0,"byteOffset":34368,"byteLength":192,"target":34963},{"buffer":0,"byteOffset":34560,"byteLength":600,"target":34962},{"buffer":0,"byteOffset":35160,"byteLength":600,"target":34962},{"buffer":0,"byteOffset":35760,"byteLength":192,"target":34963},{"buffer":0,"byteOffset":35952,"byteLength":600,"target":34962},{"buffer":0,"byteOffset":36552,"byteLength":600,"target":34962},{"buffer":0,"byteOffset":37152,"byteLength":192,"target":34963},{"buffer":0,"byteOffset":37344,"byteLength":600,"target":34962},{"buffer":0,"byteOffset":37944,"byteLength":600,"target":34962},{"buffer":0,"byteOffset":38544,"byteLength":192,"target":34963}],"accessors":[{"bufferView":0,"componentType":5126,"count":110,"type":"VEC3","min":[-0.0525,0,-0.6869615506024416],"max":[0.0525,0.4,-0.2930384493975584]},{"bufferView":1,"componentType":5126,"count":110,"type":"VEC3"},{"bufferView":2,"componentType":5123,"count":216,"type":"SCALAR"},{"bufferView":3,"componentType":5126,"count":86,"type":"VEC3","min":[-0.06194999999999999,0.116,-0.5718939446232731],"max":[0.06194999999999999,0.28400000000000003,-0.4081060553767268]},{"bufferView":4,"componentType":5126,"count":86,"type":"VEC3"},{"bufferView":5,"componentType":5123,"count":168,"type":"SCALAR"},{"bufferView":6,"componentType":5126,"count":110,"type":"VEC3","min":[-0.0575,0,0.29303844939755835],"max":[0.0575,0.4,0.6869615506024416]},{"bufferView":7,"componentType":5126,"count":110,"type":"VEC3"},{"bufferView":8,"componentType":5123,"count":216,"type":"SCALAR"},{"bufferView":9,"componentType":5126,"count":86,"type":"VEC3","min":[-0.06785,0.116,0.4081060553767268],"max":[0.06785,0.28400000000000003,0.5718939446232731]},{"bufferView":10,"componentType":5126,"count":86,"type":"VEC3"},{"bufferView":11,"componentType":5123,"count":168,"type":"SCALAR"},{"bufferView":12,"componentType":5126,"count":36,"type":"VEC3","min":[-0.17,0.265,-0.485],"max":[0.17,0.42000000000000004,0.46499999999999997]},{"bufferView":13,"componentType":5126,"count":36,"type":"VEC3"},{"bufferView":14,"componentType":5123,"count":36,"type":"SCALAR"},{"bufferView":15,"componentType":5126,"count":36,"type":"VEC3","min":[-0.18,0.46,-0.10999999999999999],"max":[0.18,0.5800000000000001,0.37]},{"bufferView":16,"componentType":5126,"count":36,"type":"VEC3"},{"bufferView":17,"componentType":5123,"count":36,"type":"SCALAR"},{"bufferView":18,"componentType":5126,"count":36,"type":"VEC3","min":[-0.21,0.44999999999999996,-0.46],"max":[0.21,0.73,-0.28]},{"bufferView":19,"componentType":5126,"count":36,"type":"VEC3"},{"bufferView":20,"componentType":5123,"count":36,"type":"SCALAR"},{"bufferView":21,"componentType":5126,"count":36,"type":"VEC3","min":[-0.17,0.69,0.010000000000000009],"max":[0.17,0.77,0.39]},{"bufferView":22,"componentType":5126,"count":36,"type":"VEC3"},{"bufferView":23,"componentType":5123,"count":36,"type":"SCALAR"},{"bufferView":24,"componentType":5126,"count":36,"type":"VEC3","min":[-0.18,0.37,0.51],"max":[0.18,0.55,0.6699999999999999]},{"bufferView":25,"componentType":5126,"count":36,"type":"VEC3"},{"bufferView":26,"componentType":5123,"count":36,"type":"SCALAR"},{"bufferView":27,"componentType":5126,"count":62,"type":"VEC3","min":[-0.18881748572689716,0.2066661055734599,-0.509914813481119],"max":[-0.07118251427310285,0.7533338944265401,-0.420085186518881]},{"bufferView":28,"componentType":5126,"count":62,"type":"VEC3"},{"bufferView":29,"componentType":5123,"count":120,"type":"SCALAR"},{"bufferView":30,"componentType":5126,"count":62,"type":"VEC3","min":[0.07118251427310285,0.2066661055734599,-0.509914813481119],"max":[0.18881748572689716,0.7533338944265401,-0.420085186518881]},{"bufferView":31,"componentType":5126,"count":62,"type":"VEC3"},{"bufferView":32,"componentType":5123,"count":120,"type":"SCALAR"},{"bufferView":33,"componentType":5126,"count":62,"type":"VEC3","min":[-0.25,0.778,-0.5509232433584934],"max":[0.25,0.8220000000000001,-0.5090767566415066]},{"bufferView":34,"componentType":5126,"count":62,"type":"VEC3"},{"bufferView":35,"componentType":5123,"count":120,"type":"SCALAR"},{"bufferView":36,"componentType":5126,"count":24,"type":"VEC3","min":[-0.06,0.55,-0.56],"max":[0.06,0.6699999999999999,-0.44]},{"bufferView":37,"componentType":5126,"count":24,"type":"VEC3"},{"bufferView":38,"componentType":5123,"count":24,"type":"SCALAR"},{"bufferView":39,"componentType":5126,"count":200,"type":"VEC3","min":[-0.15216904260722458,0.6799999999999999,-0.050586104634371604],"max":[0.15216904260722458,1.08,0.1845861046343716]},{"bufferView":40,"componentType":5126,"count":200,"type":"VEC3"},{"bufferView":41,"componentType":5123,"count":300,"type":"SCALAR"},{"bufferView":42,"componentType":5126,"count":200,"type":"VEC3","min":[-0.12363734711836998,1.0100000000000002,-0.2636311896062463],"max":[0.12363734711836998,1.27,-0.010368810393753675]},{"bufferView":43,"componentType":5126,"count":200,"type":"VEC3"},{"bufferView":44,"componentType":5123,"count":300,"type":"SCALAR"},{"bufferView":45,"componentType":5126,"count":36,"type":"VEC3","min":[-0.14,0.6300000000000001,0.16],"max":[0.14,0.75,0.36]},{"bufferView":46,"componentType":5126,"count":36,"type":"VEC3"},{"bufferView":47,"componentType":5123,"count":36,"type":"SCALAR"},{"bufferView":48,"componentType":5126,"count":50,"type":"VEC3","min":[-0.2455360349891958,0.7749093550580483,-0.5381913865093589],"max":[-0.10446396501080421,0.9550906449419518,-0.05180861349064108]},{"bufferView":49,"componentType":5126,"count":50,"type":"VEC3"},{"bufferView":50,"componentType":5123,"count":96,"type":"SCALAR"},{"bufferView":51,"componentType":5126,"count":50,"type":"VEC3","min":[0.10446396501080421,0.7749093550580483,-0.5381913865093589],"max":[0.2455360349891958,0.9550906449419518,-0.05180861349064108]},{"bufferView":52,"componentType":5126,"count":50,"type":"VEC3"},{"bufferView":53,"componentType":5123,"count":96,"type":"SCALAR"},{"bufferView":54,"componentType":5126,"count":50,"type":"VEC3","min":[-0.19117817944074728,0.4089925241835398,0.15918515136914618],"max":[-0.06882182055925272,0.6810074758164602,0.29081484863085383]},{"bufferView":55,"componentType":5126,"count":50,"type":"VEC3"},{"bufferView":56,"componentType":5123,"count":96,"type":"SCALAR"},{"bufferView":57,"componentType":5126,"count":50,"type":"VEC3","min":[0.06882182055925272,0.4089925241835398,0.15918515136914618],"max":[0.19117817944074728,0.6810074758164602,0.29081484863085383]},{"bufferView":58,"componentType":5126,"count":50,"type":"VEC3"},{"bufferView":59,"componentType":5123,"count":96,"type":"SCALAR"}]}
