{"asset":{"version":"2.0","generator":"Codex procedural low-poly travel models v2"},"scene":0,"scenes":[{"nodes":[0]}],"nodes":[{"name":"motorcycle_rider","mesh":0}],"meshes":[{"name":"motorcycle_rider_mesh","primitives":[{"attributes":{"POSITION":0,"NORMAL":1},"indices":2,"material":0},{"attributes":{"POSITION":3,"NORMAL":4},"indices":5,"material":3},{"attributes":{"POSITION":6,"NORMAL":7},"indices":8,"material":0},{"attributes":{"POSITION":9,"NORMAL":10},"indices":11,"material":3},{"attributes":{"POSITION":12,"NORMAL":13},"indices":14,"material":2},{"attributes":{"POSITION":15,"NORMAL":16},"indices":17,"material":2},{"attributes":{"POSITION":18,"NORMAL":19},"indices":20,"material":2},{"attributes":{"POSITION":21,"NORMAL":22},"indices":23,"material":2},{"attributes":{"POSITION":24,"NORMAL":25},"indices":26,"material":2},{"attributes":{"POSITION":27,"NORMAL":28},"indices":29,"material":2},{"attributes":{"POSITION":30,"NORMAL":31},"indices":32,"material":4},{"attributes":{"POSITION":33,"NORMAL":34},"indices":35,"material":5},{"attributes":{"POSITION":36,"NORMAL":37},"indices":38,"material":4},{"attributes":{"POSITION":39,"NORMAL":40},"indices":41,"material":1},{"attributes":{"POSITION":42,"NORMAL":43},"indices":44,"material":14},{"attributes":{"POSITION":45,"NORMAL":46},"indices":47,"material":15},{"attributes":{"POSITION":48,"NORMAL":49},"indices":50,"material":3},{"attributes":{"POSITION":51,"NORMAL":52},"indices":53,"material":3},{"attributes":{"POSITION":54,"NORMAL":55},"indices":56,"material":11},{"attributes":{"POSITION":57,"NORMAL":58},"indices":59,"material":5},{"attributes":{"POSITION":60,"NORMAL":61},"indices":62,"material":12},{"attributes":{"POSITION":63,"NORMAL":64},"indices":65,"material":11},{"attributes":{"POSITION":66,"NORMAL":67},"indices":68,"material":11},{"attributes":{"POSITION":69,"NORMAL":70},"indices":71,"material":12},{"attributes":{"POSITION":72,"NORMAL":73},"indices":74,"material":12},{"attributes":{"POSITION":75,"NORMAL":76},"indices":77,"material":12},{"attributes":{"POSITION":78,"NORMAL":79},"indices":80,"material":12}]}],"materials":[{"name":"tire_black","doubleSided":true,"pbrMetallicRoughness":{"baseColorFactor":[0.012,0.014,0.018,1],"metallicFactor":0,"roughnessFactor":0.68}},{"name":"rubber_dark","doubleSided":true,"pbrMetallicRoughness":{"baseColorFactor":[0.035,0.04,0.048,1],"metallicFactor":0,"roughnessFactor":0.68}},{"name":"metal_silver","doubleSided":true,"pbrMetallicRoughness":{"baseColorFactor":[0.63,0.68,0.72,1],"metallicFactor":0.25,"roughnessFactor":0.68}},{"name":"chrome_warm","doubleSided":true,"pbrMetallicRoughness":{"baseColorFactor":[0.92,0.9,0.82,1],"metallicFactor":0.35,"roughnessFactor":0.42}},{"name":"moto_orange","doubleSided":true,"pbrMetallicRoughness":{"baseColorFactor":[1,0.47,0.12,1],"metallicFactor":0,"roughnessFactor":0.68}},{"name":"warm_cream","doubleSided":true,"pbrMetallicRoughness":{"baseColorFactor":[1,0.9,0.68,1],"metallicFactor":0,"roughnessFactor":0.68}},{"name":"bike_blue","doubleSided":true,"pbrMetallicRoughness":{"baseColorFactor":[0.1,0.48,1,1],"metallicFactor":0,"roughnessFactor":0.68}},{"name":"ebike_green","doubleSided":true,"pbrMetallicRoughness":{"baseColorFactor":[0.18,0.86,0.42,1],"metallicFactor":0,"roughnessFactor":0.68}},{"name":"car_white","doubleSided":true,"pbrMetallicRoughness":{"baseColorFactor":[0.92,0.95,1,1],"metallicFactor":0,"roughnessFactor":0.68}},{"name":"car_orange","doubleSided":true,"pbrMetallicRoughness":{"baseColorFactor":[1,0.55,0.12,1],"metallicFactor":0,"roughnessFactor":0.68}},{"name":"glass_blue","doubleSided":true,"pbrMetallicRoughness":{"baseColorFactor":[0.34,0.63,1,0.82],"metallicFactor":0,"roughnessFactor":0.18},"alphaMode":"BLEND"},{"name":"rider_jacket","doubleSided":true,"pbrMetallicRoughness":{"baseColorFactor":[0.055,0.068,0.085,1],"metallicFactor":0,"roughnessFactor":0.68}},{"name":"rider_pants","doubleSided":true,"pbrMetallicRoughness":{"baseColorFactor":[0.025,0.03,0.04,1],"metallicFactor":0,"roughnessFactor":0.68}},{"name":"skin_warm","doubleSided":true,"pbrMetallicRoughness":{"baseColorFactor":[1,0.74,0.54,1],"metallicFactor":0,"roughnessFactor":0.68}},{"name":"tail_red","doubleSided":true,"pbrMetallicRoughness":{"baseColorFactor":[0.95,0.08,0.08,1],"metallicFactor":0,"roughnessFactor":0.68}},{"name":"headlight_warm","doubleSided":true,"pbrMetallicRoughness":{"baseColorFactor":[1,0.96,0.78,1],"metallicFactor":0,"roughnessFactor":0.68}}],"buffers":[{"byteLength":56040,"uri":"data:application/octet-stream;base64,"}],"bufferViews":[{"buffer":0,"byteOffset":0,"byteLength":1320,"target":34962},{"buffer":0,"byteOffset":1320,"byteLength":1320,"target":34962},{"buffer":0,"byteOffset":2640,"byteLength":432,"target":34963},{"buffer":0,"byteOffset":3072,"byteLength":1032,"target":34962},{"buffer":0,"byteOffset":4104,"byteLength":1032,"target":34962},{"buffer":0,"byteOffset":5136,"byteLength":336,"target":34963},{"buffer":0,"byteOffset":5472,"byteLength":1320,"target":34962},{"buffer":0,"byteOffset":6792,"byteLength":1320,"target":34962},{"buffer":0,"byteOffset":8112,"byteLength":432,"target":34963},{"buffer":0,"byteOffset":8544,"byteLength":1032,"target":34962},{"buffer":0,"byteOffset":9576,"byteLength":1032,"target":34962},{"buffer":0,"byteOffset":10608,"byteLength":336,"target":34963},{"buffer":0,"byteOffset":10944,"byteLength":744,"target":34962},{"buffer":0,"byteOffset":11688,"byteLength":744,"target":34962},{"buffer":0,"byteOffset":12432,"byteLength":240,"target":34963},{"buffer":0,"byteOffset":12672,"byteLength":744,"target":34962},{"buffer":0,"byteOffset":13416,"byteLength":744,"target":34962},{"buffer":0,"byteOffset":14160,"byteLength":240,"target":34963},{"buffer":0,"byteOffset":14400,"byteLength":744,"target":34962},{"buffer":0,"byteOffset":15144,"byteLength":744,"target":34962},{"buffer":0,"byteOffset":15888,"byteLength":240,"target":34963},{"buffer":0,"byteOffset":16128,"byteLength":744,"target":34962},{"buffer":0,"byteOffset":16872,"byteLength":744,"target":34962},{"buffer":0,"byteOffset":17616,"byteLength":240,"target":34963},{"buffer":0,"byteOffset":17856,"byteLength":744,"target":34962},{"buffer":0,"byteOffset":18600,"byteLength":744,"target":34962},{"buffer":0,"byteOffset":19344,"byteLength":240,"target":34963},{"buffer":0,"byteOffset":19584,"byteLength":744,"target":34962},{"buffer":0,"byteOffset":20328,"byteLength":744,"target":34962},{"buffer":0,"byteOffset":21072,"byteLength":240,"target":34963},{"buffer":0,"byteOffset":21312,"byteLength":432,"target":34962},{"buffer":0,"byteOffset":21744,"byteLength":432,"target":34962},{"buffer":0,"byteOffset":22176,"byteLength":72,"target":34963},{"buffer":0,"byteOffset":22248,"byteLength":432,"target":34962},{"buffer":0,"byteOffset":22680,"byteLength":432,"target":34962},{"buffer":0,"byteOffset":23112,"byteLength":72,"target":34963},{"buffer":0,"byteOffset":23184,"byteLength":2880,"target":34962},{"buffer":0,"byteOffset":26064,"byteLength":2880,"target":34962},{"buffer":0,"byteOffset":28944,"byteLength":720,"target":34963},{"buffer":0,"byteOffset":29664,"byteLength":432,"target":34962},{"buffer":0,"byteOffset":30096,"byteLength":432,"target":34962},{"buffer":0,"byteOffset":30528,"byteLength":72,"target":34963},{"buffer":0,"byteOffset":30600,"byteLength":432,"target":34962},{"buffer":0,"byteOffset":31032,"byteLength":432,"target":34962},{"buffer":0,"byteOffset":31464,"byteLength":72,"target":34963},{"buffer":0,"byteOffset":31536,"byteLength":288,"target":34962},{"buffer":0,"byteOffset":31824,"byteLength":288,"target":34962},{"buffer":0,"byteOffset":32112,"byteLength":48,"target":34963},{"buffer":0,"byteOffset":32160,"byteLength":744,"target":34962},{"buffer":0,"byteOffset":32904,"byteLength":744,"target":34962},{"buffer":0,"byteOffset":33648,"byteLength":240,"target":34963},{"buffer":0,"byteOffset":33888,"byteLength":888,"target":34962},{"buffer":0,"byteOffset":34776,"byteLength":888,"target":34962},{"buffer":0,"byteOffset":35664,"byteLength":288,"target":34963},{"buffer":0,"byteOffset":35952,"byteLength":2400,"target":34962},{"buffer":0,"byteOffset":38352,"byteLength":2400,"target":34962},{"buffer":0,"byteOffset":40752,"byteLength":600,"target":34963},{"buffer":0,"byteOffset":41352,"byteLength":2400,"target":34962},{"buffer":0,"byteOffset":43752,"byteLength":2400,"target":34962},{"buffer":0,"byteOffset":46152,"byteLength":600,"target":34963},{"buffer":0,"byteOffset":46752,"byteLength":432,"target":34962},{"buffer":0,"byteOffset":47184,"byteLength":432,"target":34962},{"buffer":0,"byteOffset":47616,"byteLength":72,"target":34963},{"buffer":0,"byteOffset":47688,"byteLength":600,"target":34962},{"buffer":0,"byteOffset":48288,"byteLength":600,"target":34962},{"buffer":0,"byteOffset":48888,"byteLength":192,"target":34963},{"buffer":0,"byteOffset":49080,"byteLength":600,"target":34962},{"buffer":0,"byteOffset":49680,"byteLength":600,"target":34962},{"buffer":0,"byteOffset":50280,"byteLength":192,"target":34963},{"buffer":0,"byteOffset":50472,"byteLength":600,"target":34962},{"buffer":0,"byteOffset":51072,"byteLength":600,"target":34962},{"buffer":0,"byteOffset":51672,"byteLength":192,"target":34963},{"buffer":0,"byteOffset":51864,"byteLength":600,"target":34962},{"buffer":0,"byteOffset":52464,"byteLength":600,"target":34962},{"buffer":0,"byteOffset":53064,"byteLength":192,"target":34963},{"buffer":0,"byteOffset":53256,"byteLength":600,"target":34962},{"buffer":0,"byteOffset":53856,"byteLength":600,"target":34962},{"buffer":0,"byteOffset":54456,"byteLength":192,"target":34963},{"buffer":0,"byteOffset":54648,"byteLength":600,"target":34962},{"buffer":0,"byteOffset":55248,"byteLength":600,"target":34962},{"buffer":0,"byteOffset":55848,"byteLength":192,"target":34963}],"accessors":[{"bufferView":0,"componentType":5126,"count":110,"type":"VEC3","min":[-0.0773648628424892,0,-0.7666577056626858],"max":[0.0326351371575108,0.44,-0.33334229433731416]},{"bufferView":1,"componentType":5126,"count":110,"type":"VEC3"},{"bufferView":2,"componentType":5123,"count":216,"type":"SCALAR"},{"bufferView":3,"componentType":5126,"count":86,"type":"VEC3","min":[-0.0872648628424892,0.1276,-0.6400833390856004],"max":[0.0425351371575108,0.3124,-0.4599166609143994]},{"bufferView":4,"componentType":5126,"count":86,"type":"VEC3"},{"bufferView":5,"componentType":5123,"count":168,"type":"SCALAR"},{"bufferView":6,"componentType":5126,"count":110,"type":"VEC3","min":[-0.0823648628424892,0,0.3333422943373142],"max":[0.037635137157510795,0.44,0.7666577056626858]},{"bufferView":7,"componentType":5126,"count":110,"type":"VEC3"},{"bufferView":8,"componentType":5123,"count":216,"type":"SCALAR"},{"bufferView":9,"componentType":5126,"count":86,"type":"VEC3","min":[-0.09316486284248919,0.1276,0.45991666091439953],"max":[0.048435137157510785,0.3124,0.6400833390856006]},{"bufferView":10,"componentType":5126,"count":86,"type":"VEC3"},{"bufferView":11,"componentType":5123,"count":168,"type":"SCALAR"},{"bufferView":12,"componentType":5126,"count":62,"type":"VEC3","min":[-0.1694094686851772,0.22461187865832816,-0.567174636776579],"max":[-0.08532025699980123,0.7453881213416719,-0.37282536322342097]},{"bufferView":13,"componentType":5126,"count":62,"type":"VEC3"},{"bufferView":14,"componentType":5123,"count":120,"type":"SCALAR"},{"bufferView":15,"componentType":5126,"count":62,"type":"VEC3","min":[0.04059053131482282,0.22461187865832816,-0.567174636776579],"max":[0.1246797430001988,0.7453881213416719,-0.37282536322342097]},{"bufferView":16,"componentType":5126,"count":62,"type":"VEC3"},{"bufferView":17,"componentType":5123,"count":120,"type":"SCALAR"},{"bufferView":18,"componentType":5126,"count":62,"type":"VEC3","min":[-0.23965501960195132,0.2152004788762023,0.16018831984257834],"max":[-0.0950747060830271,0.47479952112379775,0.5598116801574218]},{"bufferView":19,"componentType":5126,"count":62,"type":"VEC3"},{"bufferView":20,"componentType":5123,"count":120,"type":"SCALAR"},{"bufferView":21,"componentType":5126,"count":62,"type":"VEC3","min":[0.05034498039804869,0.2152004788762023,0.16018831984257834],"max":[0.1949252939169729,0.47479952112379775,0.5598116801574218]},{"bufferView":22,"componentType":5126,"count":62,"type":"VEC3"},{"bufferView":23,"componentType":5123,"count":120,"type":"SCALAR"},{"bufferView":24,"componentType":5126,"count":62,"type":"VEC3","min":[-0.047364862842489204,0.32701521734264294,-0.17608420717400627],"max":[0.0026351371575107987,0.5529847826573571,0.5160842071740063]},{"bufferView":25,"componentType":5126,"count":62,"type":"VEC3"},{"bufferView":26,"componentType":5123,"count":120,"type":"SCALAR"},{"bufferView":27,"componentType":5126,"count":62,"type":"VEC3","min":[-0.0443648628424892,0.35995095039187,-0.44598479092779997],"max":[-0.0003648628424892039,0.60004904960813,0.23598479092780006]},{"bufferView":28,"componentType":5126,"count":62,"type":"VEC3"},{"bufferView":29,"componentType":5123,"count":120,"type":"SCALAR"},{"bufferView":30,"componentType":5126,"count":36,"type":"VEC3","min":[-0.19236486284248921,0.42,-0.39999999999999997],"max":[0.1476351371575108,0.59,0.22000000000000003]},{"bufferView":31,"componentType":5126,"count":36,"type":"VEC3"},{"bufferView":32,"componentType":5123,"count":36,"type":"SCALAR"},{"bufferView":33,"componentType":5126,"count":36,"type":"VEC3","min":[-0.2323648628424892,0.53,-0.51],"max":[0.1876351371575108,0.7,-0.26999999999999996]},{"bufferView":34,"componentType":5126,"count":36,"type":"VEC3"},{"bufferView":35,"componentType":5123,"count":36,"type":"SCALAR"},{"bufferView":36,"componentType":5126,"count":240,"type":"VEC3","min":[-0.2030656009385684,0.42000000000000004,-0.29433808521444915],"max":[0.15833587525359,0.68,0.31433808521444917]},{"bufferView":37,"componentType":5126,"count":240,"type":"VEC3"},{"bufferView":38,"componentType":5123,"count":360,"type":"SCALAR"},{"bufferView":39,"componentType":5126,"count":36,"type":"VEC3","min":[-0.19236486284248921,0.6749999999999999,0.07000000000000003],"max":[0.1476351371575108,0.765,0.49]},{"bufferView":40,"componentType":5126,"count":36,"type":"VEC3"},{"bufferView":41,"componentType":5123,"count":36,"type":"SCALAR"},{"bufferView":42,"componentType":5126,"count":36,"type":"VEC3","min":[-0.2323648628424892,0.51,0.45],"max":[0.1876351371575108,0.6299999999999999,0.5700000000000001]},{"bufferView":43,"componentType":5126,"count":36,"type":"VEC3"},{"bufferView":44,"componentType":5123,"count":36,"type":"SCALAR"},{"bufferView":45,"componentType":5126,"count":24,"type":"VEC3","min":[-0.09236486284248921,0.5700000000000001,-0.6199999999999999],"max":[0.047635137157510804,0.71,-0.48]},{"bufferView":46,"componentType":5126,"count":24,"type":"VEC3"},{"bufferView":47,"componentType":5123,"count":24,"type":"SCALAR"},{"bufferView":48,"componentType":5126,"count":62,"type":"VEC3","min":[-0.2723648628424892,0.758,-0.46092324335849333],"max":[0.2276351371575108,0.802,-0.41907675664150656]},{"bufferView":49,"componentType":5126,"count":62,"type":"VEC3"},{"bufferView":50,"componentType":5123,"count":120,"type":"SCALAR"},{"bufferView":51,"componentType":5126,"count":74,"type":"VEC3","min":[0.12290541147253242,0.3250377992550429,-0.1345664231058983],"max":[0.2723648628424892,0.4249622007449571,0.5145664231058984]},{"bufferView":52,"componentType":5126,"count":74,"type":"VEC3"},{"bufferView":53,"componentType":5123,"count":144,"type":"SCALAR"},{"bufferView":54,"componentType":5126,"count":200,"type":"VEC3","min":[-0.17453390544971378,0.7100000000000001,-0.1335861046343716],"max":[0.12980417976473538,1.19,0.10158610463437164]},{"bufferView":55,"componentType":5126,"count":200,"type":"VEC3"},{"bufferView":56,"componentType":5123,"count":300,"type":"SCALAR"},{"bufferView":57,"componentType":5126,"count":200,"type":"VEC3","min":[-0.14600220996085916,1.0899999999999999,-0.3606311896062463],"max":[0.10127248427588077,1.35,-0.10736881039375365]},{"bufferView":58,"componentType":5126,"count":200,"type":"VEC3"},{"bufferView":59,"componentType":5123,"count":300,"type":"SCALAR"},{"bufferView":60,"componentType":5126,"count":36,"type":"VEC3","min":[-0.16236486284248922,0.6300000000000001,0.14000000000000004],"max":[0.11763513715751081,0.75,0.3400000000000001]},{"bufferView":61,"componentType":5126,"count":36,"type":"VEC3"},{"bufferView":62,"componentType":5123,"count":36,"type":"SCALAR"},{"bufferView":63,"componentType":5126,"count":50,"type":"VEC3","min":[-0.26918399882868144,0.7570874343311578,-0.46658937745727797],"max":[-0.12554572685629697,1.0229125656688423,-0.13341062254272193]},{"bufferView":64,"componentType":5126,"count":50,"type":"VEC3"},{"bufferView":65,"componentType":5123,"count":96,"type":"SCALAR"},{"bufferView":66,"componentType":5126,"count":50,"type":"VEC3","min":[0.08081600117131857,0.7570874343311578,-0.46658937745727797],"max":[0.22445427314370303,1.0229125656688423,-0.13341062254272193]},{"bufferView":67,"componentType":5126,"count":50,"type":"VEC3"},{"bufferView":68,"componentType":5123,"count":96,"type":"SCALAR"},{"bufferView":69,"componentType":5126,"count":50,"type":"VEC3","min":[-0.23611724342146997,0.37078758553609,0.1751857872160707],"max":[-0.08861248226350843,0.6792124144639101,0.27481421278392937]},{"bufferView":70,"componentType":5126,"count":50,"type":"VEC3"},{"bufferView":71,"componentType":5123,"count":96,"type":"SCALAR"},{"bufferView":72,"componentType":5126,"count":50,"type":"VEC3","min":[-0.23424101804330139,0.32805479456074776,-0.1333072902874075],"max":[-0.140488707641677,0.4119452054392522,0.21330729028740755]},{"bufferView":73,"componentType":5126,"count":50,"type":"VEC3"},{"bufferView":74,"componentType":5123,"count":96,"type":"SCALAR"},{"bufferView":75,"componentType":5126,"count":50,"type":"VEC3","min":[0.043882756578530024,0.37078758553609,0.1751857872160707],"max":[0.19138751773649157,0.6792124144639101,0.27481421278392937]},{"bufferView":76,"componentType":5126,"count":50,"type":"VEC3"},{"bufferView":77,"componentType":5123,"count":96,"type":"SCALAR"},{"bufferView":78,"componentType":5126,"count":50,"type":"VEC3","min":[0.0957589819566986,0.32805479456074776,-0.1333072902874075],"max":[0.18951129235832298,0.4119452054392522,0.21330729028740755]},{"bufferView":79,"componentType":5126,"count":50,"type":"VEC3"},{"bufferView":80,"componentType":5123,"count":96,"type":"SCALAR"}]}
