{"asset":{"version":"2.0","generator":"Codex procedural low-poly travel models v2"},"scene":0,"scenes":[{"nodes":[0]}],"nodes":[{"name":"walker","mesh":0}],"meshes":[{"name":"walker_mesh","primitives":[{"attributes":{"POSITION":0,"NORMAL":1},"indices":2,"material":5},{"attributes":{"POSITION":3,"NORMAL":4},"indices":5,"material":4},{"attributes":{"POSITION":6,"NORMAL":7},"indices":8,"material":12},{"attributes":{"POSITION":9,"NORMAL":10},"indices":11,"material":11},{"attributes":{"POSITION":12,"NORMAL":13},"indices":14,"material":11},{"attributes":{"POSITION":15,"NORMAL":16},"indices":17,"material":12},{"attributes":{"POSITION":18,"NORMAL":19},"indices":20,"material":12},{"attributes":{"POSITION":21,"NORMAL":22},"indices":23,"material":0},{"attributes":{"POSITION":24,"NORMAL":25},"indices":26,"material":0},{"attributes":{"POSITION":27,"NORMAL":28},"indices":29,"material":6},{"attributes":{"POSITION":30,"NORMAL":31},"indices":32,"material":15}]}],"materials":[{"name":"tire_black","doubleSided":true,"pbrMetallicRoughness":{"baseColorFactor":[0.012,0.014,0.018,1],"metallicFactor":0,"roughnessFactor":0.68}},{"name":"rubber_dark","doubleSided":true,"pbrMetallicRoughness":{"baseColorFactor":[0.035,0.04,0.048,1],"metallicFactor":0,"roughnessFactor":0.68}},{"name":"metal_silver","doubleSided":true,"pbrMetallicRoughness":{"baseColorFactor":[0.63,0.68,0.72,1],"metallicFactor":0.25,"roughnessFactor":0.68}},{"name":"chrome_warm","doubleSided":true,"pbrMetallicRoughness":{"baseColorFactor":[0.92,0.9,0.82,1],"metallicFactor":0.35,"roughnessFactor":0.42}},{"name":"moto_orange","doubleSided":true,"pbrMetallicRoughness":{"baseColorFactor":[1,0.47,0.12,1],"metallicFactor":0,"roughnessFactor":0.68}},{"name":"warm_cream","doubleSided":true,"pbrMetallicRoughness":{"baseColorFactor":[1,0.9,0.68,1],"metallicFactor":0,"roughnessFactor":0.68}},{"name":"bike_blue","doubleSided":true,"pbrMetallicRoughness":{"baseColorFactor":[0.1,0.48,1,1],"metallicFactor":0,"roughnessFactor":0.68}},{"name":"ebike_green","doubleSided":true,"pbrMetallicRoughness":{"baseColorFactor":[0.18,0.86,0.42,1],"metallicFactor":0,"roughnessFactor":0.68}},{"name":"car_white","doubleSided":true,"pbrMetallicRoughness":{"baseColorFactor":[0.92,0.95,1,1],"metallicFactor":0,"roughnessFactor":0.68}},{"name":"car_orange","doubleSided":true,"pbrMetallicRoughness":{"baseColorFactor":[1,0.55,0.12,1],"metallicFactor":0,"roughnessFactor":0.68}},{"name":"glass_blue","doubleSided":true,"pbrMetallicRoughness":{"baseColorFactor":[0.34,0.63,1,0.82],"metallicFactor":0,"roughnessFactor":0.18},"alphaMode":"BLEND"},{"name":"rider_jacket","doubleSided":true,"pbrMetallicRoughness":{"baseColorFactor":[0.055,0.068,0.085,1],"metallicFactor":0,"roughnessFactor":0.68}},{"name":"rider_pants","doubleSided":true,"pbrMetallicRoughness":{"baseColorFactor":[0.025,0.03,0.04,1],"metallicFactor":0,"roughnessFactor":0.68}},{"name":"skin_warm","doubleSided":true,"pbrMetallicRoughness":{"baseColorFactor":[1,0.74,0.54,1],"metallicFactor":0,"roughnessFactor":0.68}},{"name":"tail_red","doubleSided":true,"pbrMetallicRoughness":{"baseColorFactor":[0.95,0.08,0.08,1],"metallicFactor":0,"roughnessFactor":0.68}},{"name":"headlight_warm","doubleSided":true,"pbrMetallicRoughness":{"baseColorFactor":[1,0.96,0.78,1],"metallicFactor":0,"roughnessFactor":0.68}}],"buffers":[{"byteLength":20736,"uri":"data:application/octet-stream;base64,"}],"bufferViews":[{"buffer":0,"byteOffset":0,"byteLength":2400,"target":34962},{"buffer":0,"byteOffset":2400,"byteLength":2400,"target":34962},{"buffer":0,"byteOffset":4800,"byteLength":600,"target":34963},{"buffer":0,"byteOffset":5400,"byteLength":2400,"target":34962},{"buffer":0,"byteOffset":7800,"byteLength":2400,"target":34962},{"buffer":0,"byteOffset":10200,"byteLength":600,"target":34963},{"buffer":0,"byteOffset":10800,"byteLength":432,"target":34962},{"buffer":0,"byteOffset":11232,"byteLength":432,"target":34962},{"buffer":0,"byteOffset":11664,"byteLength":72,"target":34963},{"buffer":0,"byteOffset":11736,"byteLength":600,"target":34962},{"buffer":0,"byteOffset":12336,"byteLength":600,"target":34962},{"buffer":0,"byteOffset":12936,"byteLength":192,"target":34963},{"buffer":0,"byteOffset":13128,"byteLength":600,"target":34962},{"buffer":0,"byteOffset":13728,"byteLength":600,"target":34962},{"buffer":0,"byteOffset":14328,"byteLength":192,"target":34963},{"buffer":0,"byteOffset":14520,"byteLength":600,"target":34962},{"buffer":0,"byteOffset":15120,"byteLength":600,"target":34962},{"buffer":0,"byteOffset":15720,"byteLength":192,"target":34963},{"buffer":0,"byteOffset":15912,"byteLength":600,"target":34962},{"buffer":0,"byteOffset":16512,"byteLength":600,"target":34962},{"buffer":0,"byteOffset":17112,"byteLength":192,"target":34963},{"buffer":0,"byteOffset":17304,"byteLength":432,"target":34962},{"buffer":0,"byteOffset":17736,"byteLength":432,"target":34962},{"buffer":0,"byteOffset":18168,"byteLength":72,"target":34963},{"buffer":0,"byteOffset":18240,"byteLength":432,"target":34962},{"buffer":0,"byteOffset":18672,"byteLength":432,"target":34962},{"buffer":0,"byteOffset":19104,"byteLength":72,"target":34963},{"buffer":0,"byteOffset":19176,"byteLength":432,"target":34962},{"buffer":0,"byteOffset":19608,"byteLength":432,"target":34962},{"buffer":0,"byteOffset":20040,"byteLength":72,"target":34963},{"buffer":0,"byteOffset":20112,"byteLength":288,"target":34962},{"buffer":0,"byteOffset":20400,"byteLength":288,"target":34962},{"buffer":0,"byteOffset":20688,"byteLength":48,"target":34963}],"accessors":[{"bufferView":0,"componentType":5126,"count":200,"type":"VEC3","min":[-0.11943979890837138,1.06,-0.1975861046343716],"max":[0.12783489532836856,1.3399999999999999,0.037586104634371606]},{"bufferView":1,"componentType":5126,"count":200,"type":"VEC3"},{"bufferView":2,"componentType":5123,"count":300,"type":"SCALAR"},{"bufferView":3,"componentType":5126,"count":200,"type":"VEC3","min":[-0.15748205956017752,0.59,-0.10854101966249685],"max":[0.16587715598017472,1.13,0.10854101966249685]},{"bufferView":4,"componentType":5126,"count":200,"type":"VEC3"},{"bufferView":5,"componentType":5123,"count":300,"type":"SCALAR"},{"bufferView":6,"componentType":5126,"count":36,"type":"VEC3","min":[-0.1258024517900014,0.52,-0.04],"max":[0.1341975482099986,0.6399999999999999,0.12]},{"bufferView":7,"componentType":5126,"count":36,"type":"VEC3"},{"bufferView":8,"componentType":5123,"count":36,"type":"SCALAR"},{"bufferView":9,"componentType":5126,"count":50,"type":"VEC3","min":[-0.3074073553700042,0.6588345246621221,-0.21113096401643444],"max":[-0.10419754820999862,0.9811654753378779,0.01113096401643444]},{"bufferView":10,"componentType":5126,"count":50,"type":"VEC3"},{"bufferView":11,"componentType":5123,"count":96,"type":"SCALAR"},{"bufferView":12,"componentType":5126,"count":50,"type":"VEC3","min":[0.11259264462999581,0.6588345246621221,-0.01113096401643444],"max":[0.31580245179000144,0.9811654753378779,0.21113096401643444]},{"bufferView":13,"componentType":5126,"count":50,"type":"VEC3"},{"bufferView":14,"componentType":5123,"count":96,"type":"SCALAR"},{"bufferView":15,"componentType":5126,"count":50,"type":"VEC3","min":[-0.21195196534574295,0.19704407125207996,-0.21304115767897208],"max":[-0.04965293823425984,0.5429559287479201,0.043041157678972104]},{"bufferView":16,"componentType":5126,"count":50,"type":"VEC3"},{"bufferView":17,"componentType":5123,"count":96,"type":"SCALAR"},{"bufferView":18,"componentType":5126,"count":50,"type":"VEC3","min":[0.055104443776190275,0.20393511196031822,0.022860932364589623],"max":[0.2032906526438069,0.5360648880396818,0.21713906763541035]},{"bufferView":19,"componentType":5126,"count":50,"type":"VEC3"},{"bufferView":20,"componentType":5123,"count":96,"type":"SCALAR"},{"bufferView":21,"componentType":5126,"count":36,"type":"VEC3","min":[-0.31580245179000144,0,-0.32],"max":[-0.07580245179000142,0.09,-0.15999999999999998]},{"bufferView":22,"componentType":5126,"count":36,"type":"VEC3"},{"bufferView":23,"componentType":5123,"count":36,"type":"SCALAR"},{"bufferView":24,"componentType":5126,"count":36,"type":"VEC3","min":[0.054197548209998614,0,0.15999999999999998],"max":[0.29419754820999866,0.09,0.32]},{"bufferView":25,"componentType":5126,"count":36,"type":"VEC3"},{"bufferView":26,"componentType":5123,"count":36,"type":"SCALAR"},{"bufferView":27,"componentType":5126,"count":36,"type":"VEC3","min":[-0.1158024517900014,0.7899999999999999,0.09000000000000001],"max":[0.12419754820999859,1.1099999999999999,0.19]},{"bufferView":28,"componentType":5126,"count":36,"type":"VEC3"},{"bufferView":29,"componentType":5123,"count":36,"type":"SCALAR"},{"bufferView":30,"componentType":5126,"count":24,"type":"VEC3","min":[-0.0408024517900014,0.995,-0.265],"max":[0.049197548209998596,1.085,-0.175]},{"bufferView":31,"componentType":5126,"count":24,"type":"VEC3"},{"bufferView":32,"componentType":5123,"count":24,"type":"SCALAR"}]}
